<svg width="109" height="44" viewBox="0 0 109 44" fill="none" xmlns="http://www.w3.org/2000/svg">
<path d="M0 0.897705V16.6108L9.39604 9.38717L0 0.897705Z" fill="#131118"/>
<path d="M0 43.1381L9.39604 34.6506L0 27.4325V43.1381Z" fill="#131118"/>
<path d="M17.6191 19.8653L41.2598 0.897339H27.4806L0 22.0224L17.6191 19.8653Z" fill="#131118"/>
<path d="M0 22.0223L27.4806 43.1393H41.2598L17.6191 24.1677L0 22.0223Z" fill="#131118"/>
<path d="M49.647 17.8379V42.9814H45.2742V17.8379H49.647ZM57.2447 22.6479C56.6617 22.2106 56.1333 21.9009 55.6596 21.7187C55.1858 21.5001 54.5846 21.3907 53.8558 21.3907C52.7626 21.3907 51.9062 21.6641 51.2868 22.2106C50.6673 22.7572 50.23 23.5043 49.9749 24.4517C49.7563 25.3991 49.647 26.4741 49.647 27.6766H47.6792C47.6792 25.6724 48.0254 23.9051 48.7177 22.3746C49.4465 20.8077 50.3758 19.5688 51.5054 18.6578C52.635 17.7468 53.7829 17.2913 54.949 17.2913C55.86 17.2913 56.6981 17.4188 57.4633 17.6739C58.265 17.8925 58.9938 18.348 59.6497 19.0404L57.2447 22.6479Z" fill="#131118"/>
<path d="M64.0101 7.45246C64.0101 6.61434 64.3017 5.90377 64.8847 5.32073C65.5042 4.73769 66.2148 4.44617 67.0164 4.44617C67.8546 4.44617 68.5651 4.73769 69.1482 5.32073C69.7312 5.90377 70.0227 6.61434 70.0227 7.45246C70.0227 8.25414 69.7312 8.96472 69.1482 9.5842C68.5651 10.1672 67.8546 10.4588 67.0164 10.4588C66.2148 10.4588 65.5042 10.1672 64.8847 9.5842C64.3017 8.96472 64.0101 8.25414 64.0101 7.45246ZM64.83 17.8379H69.2028V42.9814H64.83V17.8379Z" fill="#131118"/>
<path d="M79.2475 35.2744C79.7576 36.0396 80.3407 36.7502 80.9966 37.4061C81.6525 38.062 82.3995 38.5904 83.2376 38.9913C84.1122 39.3557 85.0596 39.5379 86.0799 39.5379C87.3189 39.5379 88.2846 39.2646 88.9769 38.718C89.7057 38.1349 90.0701 37.3515 90.0701 36.3676C90.0701 35.493 89.7786 34.7642 89.1956 34.1812C88.649 33.5617 87.9384 33.0515 87.0638 32.6507C86.1893 32.2134 85.26 31.8126 84.2762 31.4482C83.183 31.0109 82.0716 30.5007 80.9419 29.9177C79.8487 29.2982 78.9195 28.5148 78.1543 27.5673C77.4255 26.5834 77.0611 25.3627 77.0611 23.9051C77.0611 22.4111 77.4437 21.1721 78.2089 20.1882C79.0106 19.2044 80.0309 18.4756 81.2699 18.0018C82.5453 17.5281 83.8571 17.2913 85.2054 17.2913C86.5537 17.2913 87.8108 17.5099 88.9769 17.9472C90.1794 18.3845 91.2362 18.9675 92.1472 19.6963C93.0582 20.4251 93.7688 21.2632 94.279 22.2106L90.7807 24.4517C90.0883 23.5043 89.2138 22.7208 88.157 22.1013C87.1367 21.4818 85.9706 21.1721 84.6588 21.1721C83.7478 21.1721 82.9643 21.3725 82.3084 21.7734C81.6525 22.1742 81.3245 22.7937 81.3245 23.6318C81.3245 24.2877 81.5796 24.8708 82.0898 25.3809C82.5999 25.8911 83.2558 26.3466 84.0575 26.7474C84.8592 27.1483 85.6973 27.5309 86.5719 27.8953C88.0295 28.4783 89.3596 29.116 90.5621 29.8084C91.7646 30.4643 92.712 31.266 93.4044 32.2134C94.1332 33.1609 94.4976 34.3816 94.4976 35.8756C94.4976 38.062 93.6959 39.884 92.0925 41.3416C90.5256 42.7992 88.4486 43.528 85.8613 43.528C84.1851 43.528 82.6728 43.2365 81.3245 42.6535C79.9763 42.034 78.8284 41.2505 77.881 40.3031C76.97 39.3557 76.2776 38.39 75.8039 37.4061L79.2475 35.2744Z" fill="#131118"/>
<path d="M96.4282 17.8379H109V21.9374H96.4282V17.8379ZM100.528 9.09226H104.9V42.9814H100.528V9.09226Z" fill="#131118"/>
</svg>
